<svg width="17" height="15" viewBox="0 0 17 15" fill="none" xmlns="http://www.w3.org/2000/svg">
<path d="M16.4033 2.73046H5.91087M4.00316 2.73046H1.1416M16.4033 12.269H5.91087M4.00316 12.269H1.1416M11.634 7.49973H1.1416M16.4033 7.49973H13.5417M4.95702 0.822754C5.21 0.822754 5.45261 0.923249 5.6315 1.10213C5.81038 1.28101 5.91087 1.52363 5.91087 1.77661V3.68432C5.91087 3.93729 5.81038 4.17991 5.6315 4.35879C5.45261 4.53768 5.21 4.63817 4.95702 4.63817C4.70404 4.63817 4.46142 4.53768 4.28254 4.35879C4.10366 4.17991 4.00316 3.93729 4.00316 3.68432V1.77661C4.00316 1.52363 4.10366 1.28101 4.28254 1.10213C4.46142 0.923249 4.70404 0.822754 4.95702 0.822754ZM4.95702 10.3613C5.21 10.3613 5.45261 10.4618 5.6315 10.6407C5.81038 10.8196 5.91087 11.0622 5.91087 11.3152V13.2229C5.91087 13.4758 5.81038 13.7185 5.6315 13.8973C5.45261 14.0762 5.21 14.1767 4.95702 14.1767C4.70404 14.1767 4.46142 14.0762 4.28254 13.8973C4.10366 13.7185 4.00316 13.4758 4.00316 13.2229V11.3152C4.00316 11.0622 4.10366 10.8196 4.28254 10.6407C4.46142 10.4618 4.70404 10.3613 4.95702 10.3613ZM12.5879 5.59203C12.8408 5.59203 13.0834 5.69252 13.2623 5.8714C13.4412 6.05029 13.5417 6.2929 13.5417 6.54588V8.45359C13.5417 8.70657 13.4412 8.94918 13.2623 9.12806C13.0834 9.30695 12.8408 9.40744 12.5879 9.40744C12.3349 9.40744 12.0923 9.30695 11.9134 9.12806C11.7345 8.94918 11.634 8.70657 11.634 8.45359V6.54588C11.634 6.2929 11.7345 6.05029 11.9134 5.8714C12.0923 5.69252 12.3349 5.59203 12.5879 5.59203Z" stroke="white" stroke-width="0.953854" stroke-linecap="round" stroke-linejoin="round"/>
</svg>
